<?xml version="1.0" encoding="utf-8"?>
<!-- Generator: Adobe Illustrator 13.0.0, SVG Export Plug-In . SVG Version: 6.00 Build 14948)  -->
<!DOCTYPE svg PUBLIC "-//W3C//DTD SVG 1.1//EN" "http://www.w3.org/Graphics/SVG/1.1/DTD/svg11.dtd">
<svg version="1.1" id="Layer_1" xmlns="http://www.w3.org/2000/svg" xmlns:xlink="http://www.w3.org/1999/xlink" x="0px" y="0px"
	 width="720px" height="715px" viewBox="0 0 720 715" enable-background="new 0 0 720 715" xml:space="preserve">
<g>
	<path fill="#19398A" d="M690.996,395.051c0,0-6.211-31.078-51.273-24.867c0,0-20.358-36.375-61.108-26.039
		c-4.211-1.492-7.25-1.922-7.25-1.922c-10.884-34.18-63.712-27.969-63.712-27.969c-31.062-23.305-34.173-45.062-34.173-45.062
		c-10.875-41.945,37.289-57.484,37.289-57.484c34.182-23.297,15.539-48.164,15.539-48.164l-51.272-59.04
		c-20.194-13.984-49.728-6.211-49.728-6.211C412.886,5.064,324.312,6.62,324.312,6.62l-9.318,9.312
		c52.828-4.656,55.945,21.766,55.945,21.766c-1.562,20.188-29.523,32.617-29.523,32.617c-76.142,41.953-66.812,96.329-66.812,96.329
		c7.766,99.445,139.837,113.422,139.837,113.422c71.47-4.648,87,41.954,87,41.954c45.062,0,35.741,34.18,35.741,34.18
		c-155.376-4.656-181.79,155.375-181.79,155.375h99.446c23.297-144.501,149.148-133.618,149.148-133.618
		c0-14.232-6.845-22.914-14.267-28.147c9.866-1.133,27.672,0.945,42.233,25.04c0,0,29.915,0.383,29.531,24.858
		c0,0-113.432-3.108-136.734,110.32h82.345c0,0,7.772-102.557,111.867-88.57C718.965,421.458,728.285,396.598,690.996,395.051
		 M447.064,161.987c-71.471,32.625-40.398,108.759-40.398,108.759c-85.453-23.305-48.164-71.47-48.164-71.47
		c63.711-57.484,66.806-93.219,66.806-93.219c48.173-9.328,54.392,17.086,54.392,17.086
		C481.245,146.448,447.064,161.987,447.064,161.987"/>
	<path fill="#19398A" d="M436.964,317.355l2.327-4.656h30.306c9.312,0,9.312,10.883,9.312,10.883
		c-10.478-1.562-19.797,6.977-19.797,6.977l5.039-13.203L436.964,317.355"/>
	<polygon fill="#19398A" points="246.854,44.667 252.369,27.689 237.939,17.198 255.782,17.198 261.291,0.229 266.813,17.198 
		284.658,17.198 270.212,27.689 275.735,44.667 261.291,34.174 	"/>
	<polygon fill="#19398A" points="173.829,88.167 179.345,71.198 164.907,60.706 182.759,60.706 188.259,43.729 193.782,60.706 
		211.634,60.706 197.189,71.198 202.712,88.167 188.259,77.682 	"/>
	<polygon fill="#19398A" points="114.782,137.885 120.298,120.917 105.868,110.424 123.712,110.424 129.228,93.44 134.743,110.424 
		152.603,110.424 138.149,120.917 143.673,137.885 129.228,127.401 	"/>
	<polygon fill="#19398A" points="66.617,201.589 72.133,184.621 57.703,174.127 75.547,174.127 81.062,157.144 86.579,174.127 
		104.431,174.127 89.984,184.621 95.5,201.589 81.062,191.104 	"/>
	<polygon fill="#19398A" points="30.891,271.511 36.398,254.527 21.969,244.042 39.812,244.042 45.328,227.066 50.844,244.042 
		68.695,244.042 54.25,254.527 59.766,271.511 45.328,261.011 	"/>
	<polygon fill="#19398A" points="8.922,434.043 14.438,417.066 0,406.575 17.852,406.575 23.359,389.598 28.875,406.575 
		46.734,406.575 32.281,417.066 37.805,434.043 23.359,423.559 	"/>
	<polygon fill="#19398A" points="26.492,517.013 32.008,500.043 17.578,489.551 35.422,489.551 40.938,472.567 46.445,489.551 
		64.305,489.551 49.852,500.043 55.375,517.013 40.938,506.528 	"/>
	<polygon fill="#19398A" points="12.242,352.3 17.75,335.324 3.32,324.839 21.164,324.839 26.68,307.863 32.195,324.839 
		50.055,324.839 35.602,335.324 41.125,352.3 26.68,341.809 	"/>
	<path fill="#19398A" d="M544.808,585.037v-45.735h14.07v-6.078h-33.719v6.078h14.008v45.734L544.808,585.037L544.808,585.037z
		 M498.064,585.037v-23.57h19.866v-6.078h-19.866v-16.087h23v-6.078h-28.642v51.812L498.064,585.037L498.064,585.037z
		 M482.229,533.224h-5.641v51.812h5.641V533.224z M438.339,538.974h13.397c3.022,0,5.289,0.742,6.819,2.25
		c1.523,1.492,2.289,3.548,2.289,6.164c0,1.812-0.405,3.397-1.194,4.767c-0.806,1.367-1.892,2.375-3.25,3.017
		c-1.367,0.625-3.358,0.944-6,0.944h-12.062L438.339,538.974L438.339,538.974z M438.339,585.037v-23h6.469
		c1.875,0,3.328,0.258,4.384,0.766c1.039,0.5,2.116,1.492,3.233,2.961c1.103,1.47,2.767,4.312,4.978,8.523l5.688,10.75h7.078
		l-7.445-14.104c-1.266-2.422-2.742-4.625-4.422-6.602c-0.82-0.979-2.022-1.938-3.595-2.893c3.884-0.655,6.853-2.193,8.892-4.625
		c2.039-2.422,3.047-5.594,3.047-9.5c0-2.961-0.586-5.577-1.789-7.819c-1.194-2.25-2.741-3.858-4.616-4.827
		c-1.875-0.962-4.772-1.445-8.703-1.445h-18.828v51.812L438.339,585.037L438.339,585.037z M395.519,585.037v-24.398h22.056v24.398
		h5.642v-51.812h-5.642v21.328h-22.056v-21.328h-5.642v51.812H395.519z M370.15,585.037v-45.735h14.068v-6.078h-33.718v6.078h14.016
		v45.734L370.15,585.037L370.15,585.037z"/>
	<path fill="#19398A" d="M573.355,646.044c3.107,3.164,7.297,4.758,12.547,4.758c3.366,0,6.241-0.641,8.633-1.913
		c2.383-1.272,4.272-3.134,5.656-5.569c1.397-2.438,2.094-5.143,2.094-8.104c0-3-0.656-5.578-1.978-7.732
		c-1.312-2.156-3.258-3.898-5.844-5.221c-1.695-0.844-4.642-1.844-8.837-3c-4.28-1.18-7.039-2.344-8.266-3.5
		c-1.22-1.146-1.82-2.771-1.82-4.875c0-2.258,0.828-4.102,2.492-5.521c1.664-1.432,4.094-2.143,7.258-2.143
		c3.125,0,5.547,0.812,7.281,2.438c1.719,1.633,2.719,4.133,3.008,7.5l5.414-0.5c-0.086-3.148-0.805-5.893-2.103-8.229
		c-1.306-2.336-3.142-4.115-5.5-5.375c-2.366-1.24-5.125-1.865-8.28-1.865c-4.578,0-8.229,1.326-10.938,3.99
		c-2.711,2.656-4.055,6.096-4.055,10.273c0,2.336,0.469,4.43,1.406,6.273c0.944,1.852,2.266,3.365,3.969,4.576
		c1.695,1.203,4.547,2.398,8.547,3.596c4.492,1.336,7.422,2.366,8.781,3.102c1.353,0.719,2.358,1.656,3.03,2.797
		c0.681,1.134,1.009,2.461,1.009,3.992c0,2.609-0.922,4.729-2.773,6.359c-1.852,1.625-4.444,2.453-7.789,2.453
		c-2.327,0-4.422-0.484-6.28-1.462c-1.858-0.961-3.289-2.25-4.289-3.836c-1.008-1.577-1.647-3.806-1.931-6.655l-5.305,0.5
		C568.612,638.576,570.23,642.873,573.355,646.044 M556.714,629.584v9.648c-1.367,1.452-3.211,2.719-5.53,3.779
		c-2.319,1.057-4.587,1.596-6.798,1.596c-4.641,0-8.405-1.734-11.312-5.188c-2.883-3.453-4.344-8.641-4.344-15.578
		c0-4.547,0.688-8.396,2.047-11.547c1.352-3.164,3.146-5.492,5.375-6.992c2.232-1.5,4.883-2.242,7.969-2.242
		c2.125,0,4.039,0.414,5.742,1.234c1.688,0.828,3.062,1.969,4.102,3.414c1.039,1.453,1.893,3.647,2.57,6.562l5.039-1.663
		c-0.758-3.712-1.892-6.625-3.398-8.759c-1.5-2.125-3.43-3.766-5.758-4.922s-5.062-1.733-8.172-1.733c-4.219,0-7.875,1-10.961,2.991
		c-3.078,1.992-5.578,5.078-7.492,9.281c-1.906,4.195-2.859,9.117-2.859,14.773c0,5.586,0.953,10.375,2.846,14.358
		c1.891,3.983,4.469,7.022,7.727,9.086c3.258,2.078,6.945,3.116,11.104,3.116c3.102,0,6.133-0.68,9.068-2.038
		c2.953-1.358,5.812-3.392,8.562-6.069v-19.26l-17.979,0.062v6.086h12.452V629.584z M486.636,649.904v-40.729l22.281,40.729h5.75
		v-51.812h-5.359v40.789l-22.312-40.789h-5.773v51.812H486.636z M471.589,598.091h-5.642v51.812h5.642V598.091z M443.283,649.904
		l16.517-51.812h-5.728l-11.461,37.642c-0.845,2.805-1.595,5.633-2.25,8.477c-0.625-2.727-1.375-5.547-2.22-8.477l-11.039-37.643
		h-6.077l16.405,51.812L443.283,649.904L443.283,649.904z M402.354,613.427c1.009-3.266,1.772-6.568,2.328-9.896
		c0.642,2.758,1.647,6.344,3.022,10.741l4.431,14.366h-14.522L402.354,613.427z M391.354,649.904l4.625-15.688h17.897l4.906,15.688
		h6.422l-17.319-51.812h-6.095l-16.336,51.812H391.354z M353.463,646.044c3.117,3.164,7.297,4.758,12.555,4.758
		c3.367,0,6.234-0.641,8.635-1.913c2.383-1.272,4.266-3.134,5.664-5.569c1.383-2.438,2.077-5.143,2.077-8.104
		c0-3-0.655-5.578-1.962-7.732c-1.318-2.156-3.266-3.898-5.857-5.221c-1.695-0.844-4.633-1.844-8.828-3
		c-4.281-1.18-7.031-2.344-8.258-3.5c-1.229-1.146-1.836-2.771-1.836-4.875c0-2.258,0.826-4.102,2.49-5.521
		c1.674-1.432,4.096-2.143,7.268-2.143c3.117,0,5.547,0.812,7.271,2.438c1.729,1.633,2.729,4.133,3.01,7.5l5.422-0.5
		c-0.095-3.148-0.797-5.893-2.104-8.229c-1.305-2.336-3.141-4.115-5.508-5.375c-2.359-1.24-5.125-1.865-8.271-1.865
		c-4.578,0-8.234,1.326-10.945,3.99c-2.703,2.656-4.047,6.096-4.047,10.273c0,2.336,0.461,4.43,1.404,6.273
		c0.945,1.852,2.273,3.365,3.971,4.576c1.693,1.203,4.539,2.398,8.539,3.596c4.5,1.336,7.43,2.366,8.779,3.102
		c1.354,0.719,2.367,1.656,3.039,2.797c0.673,1.134,1.01,2.461,1.01,3.992c0,2.609-0.924,4.729-2.781,6.359
		c-1.844,1.625-4.445,2.453-7.781,2.453c-2.328,0-4.422-0.484-6.281-1.462c-1.857-0.961-3.289-2.25-4.297-3.836
		c-1-1.577-1.641-3.806-1.922-6.655l-5.305,0.5C348.729,638.576,350.346,642.873,353.463,646.044"/>
	<path fill="#19398A" d="M468.861,714.771v-40.72l22.28,40.72h5.759v-51.812h-5.366v40.781l-22.312-40.781h-5.772v51.812H468.861z
		 M436.308,678.294c1.017-3.266,1.781-6.569,2.336-9.891c0.647,2.75,1.656,6.336,3.017,10.741l4.431,14.353h-14.518L436.308,678.294
		z M425.314,714.771l4.616-15.688h17.906l4.897,15.688h6.438l-17.328-51.812h-6.094l-16.345,51.812H425.314z M417.222,714.771
		v-6.087h-20.875v-45.728h-5.642v51.812L417.222,714.771L417.222,714.771z M357.111,669.053h10.852c2.914,0,4.93,0.258,6.047,0.797
		c1.117,0.556,2.062,1.547,2.854,3.009c0.797,1.461,1.18,3.227,1.18,5.271c0,3.164-0.797,5.531-2.397,7.095
		c-1.595,1.569-4.116,2.358-7.569,2.358h-10.961v-18.53H357.111L357.111,669.053z M357.111,714.771V693.67h10.857
		c5.836,0,9.938-1.478,12.312-4.423c2.383-2.93,3.562-6.728,3.562-11.391c0-3.539-0.719-6.509-2.188-8.938
		c-1.453-2.422-3.414-4.086-5.859-4.969c-1.789-0.656-4.578-0.992-8.336-0.992h-15.992v51.812h5.644V714.771L357.111,714.771z"/>
	<path fill="#FFFFFF" d="M447.064,161.987c-71.471,32.625-40.398,108.759-40.398,108.759c-85.453-23.305-48.164-71.47-48.164-71.47
		c63.711-57.484,66.806-93.219,66.806-93.219c48.173-9.328,54.392,17.086,54.392,17.086
		C481.245,146.448,447.064,161.987,447.064,161.987"/>
</g>
</svg>
